<mxfile host="app.diagrams.net" agent="Mozilla/5.0 (Windows NT 10.0; Win64; x64) AppleWebKit/537.36 (KHTML, like Gecko) Chrome/132.0.0.0 Safari/537.36" version="28.1.2">
  <diagram name="Página-1" id="K3MPkjYg-SS0c0kfxn3q">
    <mxGraphModel dx="1426" dy="-357" grid="1" gridSize="10" guides="1" tooltips="1" connect="1" arrows="1" fold="1" page="1" pageScale="1" pageWidth="850" pageHeight="1100" math="0" shadow="0">
      <root>
        <mxCell id="0" />
        <mxCell id="1" parent="0" />
        <mxCell id="F83xOVvox21xefaRlMgH-1" value="Usuário&lt;div&gt;Cadastrado&lt;/div&gt;" style="shape=umlActor;verticalLabelPosition=bottom;verticalAlign=top;html=1;fontSize=17;align=center;" parent="1" vertex="1">
          <mxGeometry x="35" y="1320" width="30" height="60" as="geometry" />
        </mxCell>
        <mxCell id="F83xOVvox21xefaRlMgH-2" value="" style="rounded=0;whiteSpace=wrap;html=1;fontSize=17;align=center;" parent="1" vertex="1">
          <mxGeometry x="110" y="1100" width="550" height="640" as="geometry" />
        </mxCell>
        <mxCell id="F83xOVvox21xefaRlMgH-3" value="&lt;span id=&quot;docs-internal-guid-2376f59f-7fff-6481-4a43-9a1930fdbd82&quot;&gt;&lt;span style=&quot;font-family: &amp;quot;Times New Roman&amp;quot;, serif; color: rgb(0, 0, 0); background-color: transparent; font-variant-numeric: normal; font-variant-east-asian: normal; font-variant-alternates: normal; font-variant-position: normal; font-variant-emoji: normal; vertical-align: baseline; white-space-collapse: preserve;&quot;&gt;&lt;font&gt;Gerar a Visualização do Mapa Interativo do Campus&lt;/font&gt;&lt;/span&gt;&lt;/span&gt;" style="ellipse;whiteSpace=wrap;html=1;fillColor=#d5e8d4;strokeColor=#82b366;fillStyle=auto;fontSize=17;align=center;" parent="1" vertex="1">
          <mxGeometry x="431" y="1105" width="150" height="80" as="geometry" />
        </mxCell>
        <mxCell id="F83xOVvox21xefaRlMgH-4" value="&lt;span id=&quot;docs-internal-guid-f24437e0-7fff-d3ac-d5e2-8a2f636085c8&quot;&gt;&lt;span style=&quot;font-family: &amp;quot;Times New Roman&amp;quot;, serif; background-color: transparent; font-variant-numeric: normal; font-variant-east-asian: normal; font-variant-alternates: normal; font-variant-position: normal; font-variant-emoji: normal; vertical-align: baseline; white-space-collapse: preserve;&quot;&gt;&lt;font&gt;Acessar Ambientes em 360°&lt;/font&gt;&lt;/span&gt;&lt;/span&gt;" style="ellipse;whiteSpace=wrap;html=1;fillColor=#d5e8d4;strokeColor=#82b366;fillStyle=auto;fontSize=17;align=center;" parent="1" vertex="1">
          <mxGeometry x="144" y="1200" width="150" height="80" as="geometry" />
        </mxCell>
        <mxCell id="F83xOVvox21xefaRlMgH-5" value="&lt;span id=&quot;docs-internal-guid-231aecde-7fff-781b-ef32-82b54bf53059&quot;&gt;&lt;p style=&quot;line-height: 1.8; margin-right: 0.206693pt; margin-top: 0pt; margin-bottom: 0pt;&quot; dir=&quot;ltr&quot;&gt;&lt;span style=&quot;font-family: &amp;quot;Times New Roman&amp;quot;, serif; background-color: transparent; font-variant-numeric: normal; font-variant-east-asian: normal; font-variant-alternates: normal; font-variant-position: normal; font-variant-emoji: normal; vertical-align: baseline; white-space-collapse: preserve;&quot;&gt;&lt;font&gt;Cadastrar Informações&lt;/font&gt;&lt;/span&gt;&lt;/p&gt;&lt;/span&gt;" style="ellipse;whiteSpace=wrap;html=1;fillColor=#d5e8d4;strokeColor=#82b366;fillStyle=auto;fontSize=17;align=center;" parent="1" vertex="1">
          <mxGeometry x="460" y="1550" width="150" height="80" as="geometry" />
        </mxCell>
        <mxCell id="F83xOVvox21xefaRlMgH-6" value="&lt;span id=&quot;docs-internal-guid-2a21bf90-7fff-7d67-aaf7-011b39197655&quot;&gt;&lt;span style=&quot;font-family: &amp;quot;Times New Roman&amp;quot;, serif; background-color: transparent; font-variant-numeric: normal; font-variant-east-asian: normal; font-variant-alternates: normal; font-variant-position: normal; font-variant-emoji: normal; vertical-align: baseline; white-space-collapse: preserve;&quot;&gt;&lt;font&gt;Disponibilizar uma aba de informações&lt;/font&gt;&lt;/span&gt;&lt;/span&gt;" style="ellipse;whiteSpace=wrap;html=1;fillColor=#d5e8d4;strokeColor=#82b366;fillStyle=auto;fontSize=17;align=center;" parent="1" vertex="1">
          <mxGeometry x="275" y="1105" width="150" height="80" as="geometry" />
        </mxCell>
        <mxCell id="F83xOVvox21xefaRlMgH-7" value="&lt;span id=&quot;docs-internal-guid-4f954907-7fff-11cc-2c32-3baa7ba16f77&quot;&gt;&lt;span style=&quot;font-family: &amp;quot;Times New Roman&amp;quot;, serif; background-color: transparent; font-variant-numeric: normal; font-variant-east-asian: normal; font-variant-alternates: normal; font-variant-position: normal; font-variant-emoji: normal; vertical-align: baseline; white-space-collapse: preserve;&quot;&gt;&lt;font&gt;Acessar aba de Informações Contextuais&lt;/font&gt;&lt;/span&gt;&lt;/span&gt;" style="ellipse;whiteSpace=wrap;html=1;fillColor=#d5e8d4;strokeColor=#82b366;fillStyle=auto;fontSize=17;align=center;" parent="1" vertex="1">
          <mxGeometry x="355" y="1360" width="150" height="80" as="geometry" />
        </mxCell>
        <mxCell id="F83xOVvox21xefaRlMgH-8" value="&lt;span id=&quot;docs-internal-guid-c27e3f41-7fff-bd98-fa2d-bf7fd519aecd&quot;&gt;&lt;span style=&quot;font-family: &amp;quot;Times New Roman&amp;quot;, serif; background-color: transparent; font-variant-numeric: normal; font-variant-east-asian: normal; font-variant-alternates: normal; font-variant-position: normal; font-variant-emoji: normal; vertical-align: baseline; white-space-collapse: preserve;&quot;&gt;&lt;font&gt;Cadastrar Blocos&lt;/font&gt;&lt;/span&gt;&lt;/span&gt;" style="ellipse;whiteSpace=wrap;html=1;fillColor=#d5e8d4;strokeColor=#82b366;fillStyle=auto;fontSize=17;align=center;" parent="1" vertex="1">
          <mxGeometry x="463" y="1450" width="150" height="80" as="geometry" />
        </mxCell>
        <mxCell id="F83xOVvox21xefaRlMgH-9" value="&lt;span id=&quot;docs-internal-guid-f903d0a3-7fff-7130-a1cf-d41139294f35&quot;&gt;&lt;span style=&quot;font-family: &amp;quot;Times New Roman&amp;quot;, serif; background-color: transparent; font-variant-numeric: normal; font-variant-east-asian: normal; font-variant-alternates: normal; font-variant-position: normal; font-variant-emoji: normal; vertical-align: baseline; white-space-collapse: preserve;&quot;&gt;&lt;font&gt;Ver Bloco&lt;/font&gt;&lt;/span&gt;&lt;/span&gt;" style="ellipse;whiteSpace=wrap;html=1;fillColor=#d5e8d4;strokeColor=#82b366;fillStyle=auto;fontSize=17;align=center;" parent="1" vertex="1">
          <mxGeometry x="191" y="1312" width="150" height="80" as="geometry" />
        </mxCell>
        <mxCell id="F83xOVvox21xefaRlMgH-10" value="&lt;span id=&quot;docs-internal-guid-57134a0b-7fff-287f-7031-dcdd36b60766&quot;&gt;&lt;span style=&quot;font-family: &amp;quot;Times New Roman&amp;quot;, serif; background-color: transparent; font-variant-numeric: normal; font-variant-east-asian: normal; font-variant-alternates: normal; font-variant-position: normal; font-variant-emoji: normal; vertical-align: baseline; white-space-collapse: preserve;&quot;&gt;&lt;font&gt;Cadastrar de Locais&lt;/font&gt;&lt;/span&gt;&lt;/span&gt;" style="ellipse;whiteSpace=wrap;html=1;fillColor=#d5e8d4;strokeColor=#82b366;fillStyle=auto;fontSize=17;align=center;" parent="1" vertex="1">
          <mxGeometry x="507" y="1280" width="150" height="80" as="geometry" />
        </mxCell>
        <mxCell id="F83xOVvox21xefaRlMgH-11" value="&lt;span id=&quot;docs-internal-guid-fb038e38-7fff-4dea-e3ec-efc2f691eba1&quot;&gt;&lt;span style=&quot;font-family: &amp;quot;Times New Roman&amp;quot;, serif; background-color: transparent; font-variant-numeric: normal; font-variant-east-asian: normal; font-variant-alternates: normal; font-variant-position: normal; font-variant-emoji: normal; vertical-align: baseline; white-space-collapse: preserve;&quot;&gt;&lt;font&gt;Selecionar um local&lt;/font&gt;&lt;/span&gt;&lt;/span&gt;" style="ellipse;whiteSpace=wrap;html=1;fillColor=#d5e8d4;strokeColor=#82b366;fillStyle=auto;fontSize=17;align=center;" parent="1" vertex="1">
          <mxGeometry x="120" y="1110" width="150" height="80" as="geometry" />
        </mxCell>
        <mxCell id="F83xOVvox21xefaRlMgH-12" value="&lt;span id=&quot;docs-internal-guid-c9275b83-7fff-f508-3f18-4c6a1340f712&quot;&gt;&lt;span style=&quot;font-family: &amp;quot;Times New Roman&amp;quot;, serif; background-color: transparent; font-variant-numeric: normal; font-variant-east-asian: normal; font-variant-alternates: normal; font-variant-position: normal; font-variant-emoji: normal; vertical-align: baseline; white-space-collapse: preserve;&quot;&gt;&lt;font&gt;Procurar por um local&lt;/font&gt;&lt;/span&gt;&lt;/span&gt;" style="ellipse;whiteSpace=wrap;html=1;fillColor=#d5e8d4;strokeColor=#82b366;fillStyle=auto;fontSize=17;align=center;" parent="1" vertex="1">
          <mxGeometry x="136" y="1391" width="150" height="80" as="geometry" />
        </mxCell>
        <mxCell id="F83xOVvox21xefaRlMgH-13" value="&lt;span id=&quot;docs-internal-guid-2de2e511-7fff-af50-b191-71acd4dcefd2&quot;&gt;&lt;span style=&quot;font-family: &amp;quot;Times New Roman&amp;quot;, serif; background-color: transparent; font-variant-numeric: normal; font-variant-east-asian: normal; font-variant-alternates: normal; font-variant-position: normal; font-variant-emoji: normal; vertical-align: baseline; white-space-collapse: preserve;&quot;&gt;&lt;font&gt;Navegar pelo Bloco&lt;/font&gt;&lt;/span&gt;&lt;/span&gt;" style="ellipse;whiteSpace=wrap;html=1;fillColor=#d5e8d4;strokeColor=#82b366;fillStyle=auto;fontSize=17;align=center;" parent="1" vertex="1">
          <mxGeometry x="138" y="1565" width="150" height="80" as="geometry" />
        </mxCell>
        <mxCell id="F83xOVvox21xefaRlMgH-15" value="&lt;span id=&quot;docs-internal-guid-271f6d08-7fff-dcd5-a9e2-8c8246d5975a&quot;&gt;&lt;span style=&quot;font-family: &amp;quot;Times New Roman&amp;quot;, serif; background-color: transparent; font-variant-numeric: normal; font-variant-east-asian: normal; font-variant-alternates: normal; font-variant-position: normal; font-variant-emoji: normal; vertical-align: baseline; white-space-collapse: preserve;&quot;&gt;&lt;font&gt;Direcionar usuário ao site do IF&lt;/font&gt;&lt;/span&gt;&lt;/span&gt;" style="ellipse;whiteSpace=wrap;html=1;fillColor=#d5e8d4;strokeColor=#82b366;fillStyle=auto;fontSize=17;align=center;" parent="1" vertex="1">
          <mxGeometry x="127" y="1654" width="150" height="80" as="geometry" />
        </mxCell>
        <mxCell id="F83xOVvox21xefaRlMgH-16" value="&lt;span id=&quot;docs-internal-guid-fb038e38-7fff-4dea-e3ec-efc2f691eba1&quot;&gt;&lt;span style=&quot;font-family: &amp;quot;Times New Roman&amp;quot;, serif; background-color: transparent; font-variant-numeric: normal; font-variant-east-asian: normal; font-variant-alternates: normal; font-variant-position: normal; font-variant-emoji: normal; vertical-align: baseline; white-space-collapse: preserve;&quot;&gt;&lt;font&gt;Cadastrar cursos&lt;/font&gt;&lt;/span&gt;&lt;/span&gt;" style="ellipse;whiteSpace=wrap;html=1;fillColor=#d5e8d4;strokeColor=#82b366;fillStyle=auto;fontSize=17;align=center;" parent="1" vertex="1">
          <mxGeometry x="400" y="1650" width="150" height="80" as="geometry" />
        </mxCell>
        <mxCell id="F83xOVvox21xefaRlMgH-17" value="&lt;span style=&quot;font-family: &amp;quot;Times New Roman&amp;quot;, serif; white-space-collapse: preserve;&quot;&gt;Enviar Feedback&lt;/span&gt;" style="ellipse;whiteSpace=wrap;html=1;fillColor=#d5e8d4;strokeColor=#82b366;fillStyle=auto;fontSize=17;align=center;" parent="1" vertex="1">
          <mxGeometry x="318" y="1490" width="150" height="80" as="geometry" />
        </mxCell>
        <mxCell id="F83xOVvox21xefaRlMgH-20" value="Admin" style="shape=umlActor;verticalLabelPosition=bottom;verticalAlign=top;html=1;fontSize=17;align=center;" parent="1" vertex="1">
          <mxGeometry x="700" y="1520" width="30" height="60" as="geometry" />
        </mxCell>
        <mxCell id="F83xOVvox21xefaRlMgH-21" value="&lt;span id=&quot;docs-internal-guid-fb038e38-7fff-4dea-e3ec-efc2f691eba1&quot;&gt;&lt;span style=&quot;font-family: &amp;quot;Times New Roman&amp;quot;, serif; background-color: transparent; font-variant-numeric: normal; font-variant-east-asian: normal; font-variant-alternates: normal; font-variant-position: normal; font-variant-emoji: normal; vertical-align: baseline; white-space-collapse: preserve;&quot;&gt;&lt;font&gt;Navegar pelo site&lt;/font&gt;&lt;/span&gt;&lt;/span&gt;" style="ellipse;whiteSpace=wrap;html=1;fillColor=#d5e8d4;strokeColor=#82b366;fillStyle=auto;fontSize=17;align=center;" parent="1" vertex="1">
          <mxGeometry x="144" y="1481" width="150" height="80" as="geometry" />
        </mxCell>
        <mxCell id="F83xOVvox21xefaRlMgH-22" style="rounded=0;orthogonalLoop=1;jettySize=auto;html=1;exitX=0.5;exitY=0.5;exitDx=0;exitDy=0;exitPerimeter=0;endArrow=classic;endFill=1;strokeWidth=1;jumpSize=0;strokeColor=default;entryX=0;entryY=1;entryDx=0;entryDy=0;fontSize=17;align=center;" parent="1" source="F83xOVvox21xefaRlMgH-1" target="F83xOVvox21xefaRlMgH-11" edge="1">
          <mxGeometry relative="1" as="geometry" />
        </mxCell>
        <mxCell id="F83xOVvox21xefaRlMgH-23" style="rounded=0;orthogonalLoop=1;jettySize=auto;html=1;exitX=0.5;exitY=0.5;exitDx=0;exitDy=0;exitPerimeter=0;endArrow=classic;endFill=1;strokeWidth=1;jumpSize=0;strokeColor=default;entryX=0;entryY=1;entryDx=0;entryDy=0;fontSize=17;align=center;" parent="1" source="F83xOVvox21xefaRlMgH-1" target="F83xOVvox21xefaRlMgH-4" edge="1">
          <mxGeometry relative="1" as="geometry">
            <mxPoint x="-60" y="1180" as="sourcePoint" />
            <mxPoint x="157" y="946" as="targetPoint" />
          </mxGeometry>
        </mxCell>
        <mxCell id="F83xOVvox21xefaRlMgH-24" style="rounded=0;orthogonalLoop=1;jettySize=auto;html=1;exitX=0.5;exitY=0.5;exitDx=0;exitDy=0;exitPerimeter=0;endArrow=classic;endFill=1;strokeWidth=1;jumpSize=0;strokeColor=default;entryX=0;entryY=0.5;entryDx=0;entryDy=0;fontSize=17;align=center;" parent="1" source="F83xOVvox21xefaRlMgH-1" target="F83xOVvox21xefaRlMgH-9" edge="1">
          <mxGeometry relative="1" as="geometry">
            <mxPoint x="-60" y="1180" as="sourcePoint" />
            <mxPoint x="236" y="1028" as="targetPoint" />
          </mxGeometry>
        </mxCell>
        <mxCell id="F83xOVvox21xefaRlMgH-25" style="rounded=0;orthogonalLoop=1;jettySize=auto;html=1;exitX=0.5;exitY=0.5;exitDx=0;exitDy=0;exitPerimeter=0;endArrow=classic;endFill=1;strokeWidth=1;jumpSize=0;strokeColor=default;entryX=0;entryY=0;entryDx=0;entryDy=0;fontSize=17;align=center;" parent="1" source="F83xOVvox21xefaRlMgH-1" target="F83xOVvox21xefaRlMgH-12" edge="1">
          <mxGeometry relative="1" as="geometry">
            <mxPoint x="-60" y="1180" as="sourcePoint" />
            <mxPoint x="285" y="1090" as="targetPoint" />
          </mxGeometry>
        </mxCell>
        <mxCell id="F83xOVvox21xefaRlMgH-26" style="rounded=0;orthogonalLoop=1;jettySize=auto;html=1;exitX=0.5;exitY=0.5;exitDx=0;exitDy=0;exitPerimeter=0;endArrow=classic;endFill=1;strokeWidth=1;jumpSize=0;strokeColor=default;entryX=0;entryY=0;entryDx=0;entryDy=0;fontSize=17;align=center;" parent="1" source="F83xOVvox21xefaRlMgH-1" target="F83xOVvox21xefaRlMgH-21" edge="1">
          <mxGeometry relative="1" as="geometry">
            <mxPoint x="-50" y="1190" as="sourcePoint" />
            <mxPoint x="295" y="1100" as="targetPoint" />
          </mxGeometry>
        </mxCell>
        <mxCell id="F83xOVvox21xefaRlMgH-27" style="rounded=0;orthogonalLoop=1;jettySize=auto;html=1;exitX=0.5;exitY=0.5;exitDx=0;exitDy=0;exitPerimeter=0;endArrow=classic;endFill=1;strokeWidth=1;jumpSize=0;strokeColor=default;entryX=0;entryY=0;entryDx=0;entryDy=0;fontSize=17;align=center;" parent="1" source="F83xOVvox21xefaRlMgH-1" target="F83xOVvox21xefaRlMgH-13" edge="1">
          <mxGeometry relative="1" as="geometry">
            <mxPoint x="-40" y="1200" as="sourcePoint" />
            <mxPoint x="305" y="1110" as="targetPoint" />
          </mxGeometry>
        </mxCell>
        <mxCell id="F83xOVvox21xefaRlMgH-35" style="rounded=0;orthogonalLoop=1;jettySize=auto;html=1;exitX=0.5;exitY=0.5;exitDx=0;exitDy=0;exitPerimeter=0;endArrow=classic;endFill=1;strokeWidth=1;jumpSize=0;strokeColor=default;entryX=1;entryY=0.5;entryDx=0;entryDy=0;fontSize=17;align=center;" parent="1" source="F83xOVvox21xefaRlMgH-20" target="F83xOVvox21xefaRlMgH-8" edge="1">
          <mxGeometry relative="1" as="geometry">
            <mxPoint x="965" y="1570" as="sourcePoint" />
            <mxPoint x="775" y="1780" as="targetPoint" />
          </mxGeometry>
        </mxCell>
        <mxCell id="F83xOVvox21xefaRlMgH-36" style="rounded=0;orthogonalLoop=1;jettySize=auto;html=1;exitX=0.5;exitY=0.5;exitDx=0;exitDy=0;exitPerimeter=0;endArrow=classic;endFill=1;strokeWidth=1;jumpSize=0;strokeColor=default;entryX=1;entryY=0.5;entryDx=0;entryDy=0;fontSize=17;align=center;" parent="1" source="F83xOVvox21xefaRlMgH-20" target="F83xOVvox21xefaRlMgH-16" edge="1">
          <mxGeometry relative="1" as="geometry">
            <mxPoint x="980" y="1710" as="sourcePoint" />
            <mxPoint x="833" y="1608" as="targetPoint" />
          </mxGeometry>
        </mxCell>
        <mxCell id="F83xOVvox21xefaRlMgH-37" style="rounded=0;orthogonalLoop=1;jettySize=auto;html=1;exitX=0.5;exitY=0.5;exitDx=0;exitDy=0;exitPerimeter=0;endArrow=classic;endFill=1;strokeWidth=1;jumpSize=0;strokeColor=default;entryX=1;entryY=0.5;entryDx=0;entryDy=0;fontSize=17;align=center;" parent="1" source="F83xOVvox21xefaRlMgH-20" target="F83xOVvox21xefaRlMgH-5" edge="1">
          <mxGeometry relative="1" as="geometry">
            <mxPoint x="990" y="1720" as="sourcePoint" />
            <mxPoint x="843" y="1618" as="targetPoint" />
          </mxGeometry>
        </mxCell>
        <mxCell id="F83xOVvox21xefaRlMgH-38" style="rounded=0;orthogonalLoop=1;jettySize=auto;html=1;exitX=0.5;exitY=0.5;exitDx=0;exitDy=0;exitPerimeter=0;endArrow=classic;endFill=1;strokeWidth=1;jumpSize=0;strokeColor=default;entryX=0.5;entryY=1;entryDx=0;entryDy=0;fontSize=17;align=center;" parent="1" source="F83xOVvox21xefaRlMgH-20" target="F83xOVvox21xefaRlMgH-10" edge="1">
          <mxGeometry relative="1" as="geometry">
            <mxPoint x="1000" y="1730" as="sourcePoint" />
            <mxPoint x="853" y="1628" as="targetPoint" />
          </mxGeometry>
        </mxCell>
        <mxCell id="P-5V8FdcP5-6O3BqUtUe-1" value="&lt;font face=&quot;Times New Roman, serif&quot;&gt;&lt;span style=&quot;white-space-collapse: preserve;&quot;&gt;Logar Usuário&lt;/span&gt;&lt;/font&gt;" style="ellipse;whiteSpace=wrap;html=1;fillColor=#d5e8d4;strokeColor=#82b366;fillStyle=auto;fontSize=17;align=center;" parent="1" vertex="1">
          <mxGeometry x="304" y="1245" width="150" height="90" as="geometry" />
        </mxCell>
        <mxCell id="P-5V8FdcP5-6O3BqUtUe-2" value="&lt;span style=&quot;font-family: &amp;quot;Times New Roman&amp;quot;, serif; white-space-collapse: preserve;&quot;&gt;Cadastrar Usuário&lt;/span&gt;" style="ellipse;whiteSpace=wrap;html=1;fillColor=#d5e8d4;strokeColor=#82b366;fillStyle=auto;fontSize=17;align=center;" parent="1" vertex="1">
          <mxGeometry x="500" y="1185" width="150" height="80" as="geometry" />
        </mxCell>
        <mxCell id="P-5V8FdcP5-6O3BqUtUe-4" style="rounded=0;orthogonalLoop=1;jettySize=auto;html=1;exitX=0.5;exitY=0.5;exitDx=0;exitDy=0;exitPerimeter=0;endArrow=classic;endFill=1;strokeWidth=1;jumpSize=0;strokeColor=default;entryX=1;entryY=0.5;entryDx=0;entryDy=0;fontSize=17;align=center;" parent="1" source="F83xOVvox21xefaRlMgH-20" target="P-5V8FdcP5-6O3BqUtUe-1" edge="1">
          <mxGeometry relative="1" as="geometry">
            <mxPoint x="1015" y="1520" as="sourcePoint" />
            <mxPoint x="838" y="1498" as="targetPoint" />
          </mxGeometry>
        </mxCell>
        <mxCell id="P-5V8FdcP5-6O3BqUtUe-5" style="rounded=0;orthogonalLoop=1;jettySize=auto;html=1;exitX=0.5;exitY=0.5;exitDx=0;exitDy=0;exitPerimeter=0;endArrow=classic;endFill=1;strokeWidth=1;jumpSize=0;strokeColor=default;entryX=0;entryY=0.5;entryDx=0;entryDy=0;fontSize=17;align=center;" parent="1" source="F83xOVvox21xefaRlMgH-1" target="P-5V8FdcP5-6O3BqUtUe-1" edge="1">
          <mxGeometry relative="1" as="geometry">
            <mxPoint x="-205" y="1220" as="sourcePoint" />
            <mxPoint x="445" y="1357" as="targetPoint" />
          </mxGeometry>
        </mxCell>
        <mxCell id="P-5V8FdcP5-6O3BqUtUe-12" value="&amp;lt;&amp;lt;extend&amp;gt;&amp;gt;" style="html=1;verticalAlign=bottom;labelBackgroundColor=none;endArrow=open;endFill=0;dashed=1;rounded=0;exitX=0;exitY=1;exitDx=0;exitDy=0;entryX=1;entryY=0;entryDx=0;entryDy=0;fontSize=17;align=center;" parent="1" source="P-5V8FdcP5-6O3BqUtUe-2" target="P-5V8FdcP5-6O3BqUtUe-1" edge="1">
          <mxGeometry width="160" relative="1" as="geometry">
            <mxPoint x="525" y="1280" as="sourcePoint" />
            <mxPoint x="685" y="1280" as="targetPoint" />
          </mxGeometry>
        </mxCell>
        <mxCell id="P-5V8FdcP5-6O3BqUtUe-13" value="&amp;lt;&amp;lt;include&amp;gt;&amp;gt;" style="html=1;verticalAlign=bottom;labelBackgroundColor=none;endArrow=open;endFill=0;dashed=1;rounded=0;exitX=0;exitY=0;exitDx=0;exitDy=0;entryX=0.5;entryY=1;entryDx=0;entryDy=0;fontSize=17;align=center;" parent="1" source="P-5V8FdcP5-6O3BqUtUe-1" target="F83xOVvox21xefaRlMgH-6" edge="1">
          <mxGeometry width="160" relative="1" as="geometry">
            <mxPoint x="525" y="1280" as="sourcePoint" />
            <mxPoint x="685" y="1280" as="targetPoint" />
          </mxGeometry>
        </mxCell>
        <mxCell id="P-5V8FdcP5-6O3BqUtUe-14" value="&amp;lt;&amp;lt;include&amp;gt;&amp;gt;" style="html=1;verticalAlign=bottom;labelBackgroundColor=none;endArrow=open;endFill=0;dashed=1;rounded=0;exitX=1;exitY=0.5;exitDx=0;exitDy=0;fontSize=17;align=center;entryX=0;entryY=1;entryDx=0;entryDy=0;" parent="1" source="F83xOVvox21xefaRlMgH-21" target="F83xOVvox21xefaRlMgH-7" edge="1">
          <mxGeometry width="160" relative="1" as="geometry">
            <mxPoint x="525" y="1530" as="sourcePoint" />
            <mxPoint x="685" y="1530" as="targetPoint" />
          </mxGeometry>
        </mxCell>
        <mxCell id="P-5V8FdcP5-6O3BqUtUe-19" value="&amp;lt;&amp;lt;extend&amp;gt;&amp;gt;" style="html=1;verticalAlign=bottom;labelBackgroundColor=none;endArrow=open;endFill=0;dashed=1;rounded=0;entryX=0.5;entryY=1;entryDx=0;entryDy=0;exitX=1;exitY=0.5;exitDx=0;exitDy=0;fontSize=17;align=center;" parent="1" source="F83xOVvox21xefaRlMgH-15" target="F83xOVvox21xefaRlMgH-17" edge="1">
          <mxGeometry width="160" relative="1" as="geometry">
            <mxPoint x="830" y="1180" as="sourcePoint" />
            <mxPoint x="318.03300858899115" y="1758.284271247462" as="targetPoint" />
          </mxGeometry>
        </mxCell>
        <mxCell id="P-5V8FdcP5-6O3BqUtUe-20" value="&amp;lt;&amp;lt;include&amp;gt;&amp;gt;" style="html=1;verticalAlign=bottom;labelBackgroundColor=none;endArrow=open;endFill=0;dashed=1;rounded=0;exitX=0.5;exitY=0;exitDx=0;exitDy=0;entryX=0;entryY=1;entryDx=0;entryDy=0;fontSize=17;align=center;" parent="1" source="P-5V8FdcP5-6O3BqUtUe-1" target="F83xOVvox21xefaRlMgH-3" edge="1">
          <mxGeometry width="160" relative="1" as="geometry">
            <mxPoint x="777" y="1243" as="sourcePoint" />
            <mxPoint x="635" y="1230" as="targetPoint" />
          </mxGeometry>
        </mxCell>
        <mxCell id="3oryeBlnrlNp6G4BQjR2-1" style="rounded=0;orthogonalLoop=1;jettySize=auto;html=1;exitX=0.5;exitY=0.5;exitDx=0;exitDy=0;exitPerimeter=0;endArrow=classic;endFill=1;strokeWidth=1;jumpSize=0;strokeColor=default;entryX=0;entryY=0;entryDx=0;entryDy=0;fontSize=17;align=center;" edge="1" parent="1" source="F83xOVvox21xefaRlMgH-1" target="F83xOVvox21xefaRlMgH-15">
          <mxGeometry relative="1" as="geometry">
            <mxPoint x="60" y="1360" as="sourcePoint" />
            <mxPoint x="156" y="1591" as="targetPoint" />
          </mxGeometry>
        </mxCell>
      </root>
    </mxGraphModel>
  </diagram>
</mxfile>
